<svg height="512pt" viewBox="0 0 512 512" width="512pt" xmlns="http://www.w3.org/2000/svg"><path d="m112 352h-37.785156c-10.0625 0-18.214844-8.152344-18.214844-18.214844v-123.570312c0-10.0625 8.152344-18.214844 18.214844-18.214844h37.785156zm0 0" fill="#706d69"/><g fill="#9bc53d"><path d="m56 337.601562-32.886719-6.984374c-8.671875-1.242188-15.113281-8.664063-15.113281-17.425782v-79.183594c0-8.761718 6.441406-16.183593 15.113281-17.421874l32.886719-6.984376zm0 0"/><path d="m112 320-20.441406-13.625c-2.222656-1.488281-3.558594-3.984375-3.558594-6.65625v-55.4375c0-2.671875 1.335938-5.175781 3.558594-6.65625l20.441406-13.625zm0 0"/><path d="m112 192h-40v-24l16-40h24zm0 0"/></g><path d="m400 352h37.785156c10.0625 0 18.214844-8.152344 18.214844-18.214844v-123.570312c0-10.0625-8.152344-18.214844-18.214844-18.214844h-37.785156zm0 0" fill="#706d69"/><path d="m456 337.601562 32.886719-6.984374c8.671875-1.242188 15.113281-8.664063 15.113281-17.425782v-79.183594c0-8.761718-6.441406-16.183593-15.113281-17.421874l-32.886719-6.984376zm0 0" fill="#9bc53d"/><path d="m400 320 20.441406-13.625c2.222656-1.488281 3.558594-3.984375 3.558594-6.65625v-55.4375c0-2.671875-1.335938-5.175781-3.558594-6.65625l-20.441406-13.625zm0 0" fill="#9bc53d"/><path d="m400 192h40v-24l-16-40h-24zm0 0" fill="#9bc53d"/><path d="m490.550781 208.761719-27.734375-5.890625c-2.222656-7.550782-7.65625-13.75-14.824218-16.792969v-18.078125c0-1.015625-.191407-2.023438-.566407-2.96875l-16-40c-1.21875-3.039062-4.152343-5.03125-7.425781-5.03125h-8.382812c-3.929688-66.816406-59.359376-120-127.136719-120h-64.960938c-34.152343 0-66.238281 13.328125-90.34375 37.519531-22.199219 22.289063-35.007812 51.34375-36.816406 82.480469h-8.359375c-3.273438 0-6.207031 1.992188-7.433594 5.03125l-16 40c-.375.945312-.566406 1.953125-.566406 2.96875v18.070312c-7.167969 3.050782-12.601562 9.242188-14.824219 16.800782l-27.199219 5.792968c-12.527343 1.792969-21.976562 12.679688-21.976562 25.34375v79.183594c0 12.648438 9.449219 23.542969 21.449219 25.25l28.949219 6.152344c4.128906 9.0625 13.226562 15.40625 23.816406 15.40625h37.785156c4.414062 0 8-3.574219 8-8v-224c0-4.296875-3.398438-7.734375-7.648438-7.929688 1.761719-26.894531 12.945313-51.964843 32.152344-71.246093 21.089844-21.167969 49.144532-32.824219 79.015625-32.824219h64.960938c58.839843 0 107.0625 45.839844 111.128906 104.078125-4.234375.21875-7.609375 3.640625-7.609375 7.921875v224c0 4.425781 3.574219 8 8 8h37.785156c10.597656 0 19.695313-6.34375 23.824219-15.40625l28.414063-6.050781c12.527343-1.800781 21.976562-12.703125 21.976562-25.351563v-79.183594c0-12.664062-9.457031-23.550781-21.449219-25.246093zm-410.550781-39.226563 13.414062-33.535156h10.585938v48h-24zm-64 143.65625v-9.191406h16v-16h-16v-32h16v-16h-16v-5.992188c0-4.75 3.542969-8.832031 8.769531-9.59375l23.230469-4.933593v108.246093l-23.753906-5.03125c-4.703125-.671874-8.246094-4.757812-8.246094-9.503906zm58.214844 30.808594c-5.628906 0-10.214844-4.585938-10.214844-10.214844v-123.570312c0-5.628906 4.585938-10.214844 10.214844-10.214844h29.785156v19.71875l-16.871094 11.25c-4.464844 2.976562-7.128906 7.953125-7.128906 13.3125v55.4375c0 5.359375 2.664062 10.335938 7.128906 13.3125l16.871094 11.25v19.71875zm29.785156-38.945312-8-5.335938v-55.4375l8-5.335938zm328-135.519532v14.464844h-24v-48h10.585938zm-24 69.410156 8 5.335938v55.4375l-8 5.335938zm29.785156 105.054688h-29.785156v-19.71875l16.871094-11.25c4.464844-2.976562 7.128906-7.953125 7.128906-13.3125v-55.4375c0-5.359375-2.664062-10.335938-7.128906-13.3125l-16.871094-11.25v-19.71875h29.785156c5.628906 0 10.214844 4.585938 10.214844 10.214844v123.5625c0 5.636718-4.585938 10.222656-10.214844 10.222656zm49.4375-21.207031-23.222656 4.933593v-108.246093l23.769531 5.03125c4.695313.65625 8.230469 4.746093 8.230469 9.496093v5.992188h-16v16h16v32h-16v16h16v9.191406c0 4.746094-3.542969 8.832032-8.777344 9.601563zm0 0"/><path d="m296 480h-80v-408c0-4.414062 3.585938-8 8-8h64c4.414062 0 8 3.585938 8 8zm0 0" fill="#e65039"/><path d="m296 448h-80c-4.414062 0-8-3.574219-8-8v-304c0-4.425781 3.585938-8 8-8h80c4.425781 0 8 3.574219 8 8v304c0 4.425781-3.574219 8-8 8zm-72-16h64v-288h-64zm0 0"/><path d="m216 104h80v32h-80zm0 0" fill="#fab9af"/><path d="m272 408h24v32h-80v-32zm0 0" fill="#fab9af"/><path d="m368 480h-72v-360c0-4.414062 3.585938-8 8-8h56c4.414062 0 8 3.585938 8 8zm0 0" fill="#fcb641"/><path d="m368 144h-72v-24c0-4.414062 3.585938-8 8-8h56c4.414062 0 8 3.585938 8 8zm0 0" fill="#fce0b0"/><path d="m296 200h72v32h-72zm0 0" fill="#fce0b0"/><path d="m296 448h72v32h-72zm0 0" fill="#fce0b0"/><path d="m144 480h72v-360c0-4.414062-3.585938-8-8-8h-56c-4.414062 0-8 3.585938-8 8zm0 0" fill="#fcb641"/><path d="m144 144h72v-24c0-4.414062-3.585938-8-8-8h-56c-4.414062 0-8 3.585938-8 8zm0 0" fill="#fce0b0"/><path d="m216 232h-72v-32h72zm0 0" fill="#fce0b0"/><path d="m216 480h-72v-32h72zm0 0" fill="#fce0b0"/><path d="m480 504h-448c0-13.257812 10.742188-24 24-24h400c13.257812 0 24 10.742188 24 24zm0 0" fill="#706d69"/><path d="m456 472h-80v-352c0-8.824219-7.175781-16-16-16h-56v-32c0-8.824219-7.175781-16-16-16h-64c-8.824219 0-16 7.175781-16 16v32h-56c-8.824219 0-16 7.175781-16 16v352h-80c-17.648438 0-32 14.351562-32 32 0 4.425781 3.585938 8 8 8h448c4.425781 0 8-3.574219 8-8 0-17.648438-14.351562-32-32-32zm-152-352h56v16h-56zm0 32h56v40h-56zm0 56h56v16h-56zm56 32v200h-56v-200zm-56 216h56v16h-56zm-80-384h64v24h-64zm0 40h64v16h-64zm0 304h32v-16h-32v-256h64v256h-16v16h16v16h-64zm0 32h64v24h-64zm-72-328h56v16h-56zm0 32h56v40h-56zm0 56h56v16h-56zm0 32h56v200h-56zm0 216h56v16h-56zm-109.847656 40c2.769531-4.785156 7.9375-8 13.847656-8h400c5.910156 0 11.089844 3.214844 13.847656 8zm0 0"/></svg>