<?xml version="1.0" encoding="UTF-8" standalone="no"?>
<!-- Created with Inkscape (http://www.inkscape.org/) -->

<svg
   xmlns:dc="http://purl.org/dc/elements/1.1/"
   xmlns:cc="http://creativecommons.org/ns#"
   xmlns:rdf="http://www.w3.org/1999/02/22-rdf-syntax-ns#"
   xmlns:svg="http://www.w3.org/2000/svg"
   xmlns="http://www.w3.org/2000/svg"
   xmlns:sodipodi="http://sodipodi.sourceforge.net/DTD/sodipodi-0.dtd"
   xmlns:inkscape="http://www.inkscape.org/namespaces/inkscape"
   version="1.1"
   id="svg2"
   xml:space="preserve"
   width="493.77866"
   height="441.77866"
   viewBox="0 0 493.77866 441.77866"
   sodipodi:docname="NoVa_POSH.svg"
   inkscape:version="0.92.2 (5c3e80d, 2017-08-06)"
   inkscape:export-filename="C:\Users\schu\Pictures\Nova\NoVa_POSH.png"
   inkscape:export-xdpi="46.52"
   inkscape:export-ydpi="46.52"><metadata
     id="metadata8"><rdf:RDF><cc:Work
         rdf:about=""><dc:format>image/svg+xml</dc:format><dc:type
           rdf:resource="http://purl.org/dc/dcmitype/StillImage" /><dc:title /></cc:Work></rdf:RDF></metadata><defs
     id="defs6"><clipPath
       clipPathUnits="userSpaceOnUse"
       id="clipPath24"><path
         d="M 0,612 H 792 V 0 H 0 Z"
         id="path22"
         inkscape:connector-curvature="0" /></clipPath></defs><sodipodi:namedview
     pagecolor="#ffffff"
     bordercolor="#666666"
     borderopacity="1"
     objecttolerance="10"
     gridtolerance="10"
     guidetolerance="10"
     inkscape:pageopacity="0"
     inkscape:pageshadow="2"
     inkscape:window-width="1050"
     inkscape:window-height="1617"
     id="namedview4"
     showgrid="false"
     inkscape:zoom="1.1568627"
     inkscape:cx="209.02929"
     inkscape:cy="297.44129"
     inkscape:window-x="1672"
     inkscape:window-y="-8"
     inkscape:window-maximized="1"
     inkscape:current-layer="g10"
     fit-margin-top="10"
     fit-margin-left="10"
     fit-margin-right="10"
     fit-margin-bottom="10" /><g
     id="g10"
     inkscape:groupmode="layer"
     inkscape:label="nova_corps"
     transform="matrix(1.3333333,0,0,-1.3333333,-281.11066,628.88932)"
     style="display:inline"><g
       id="g1516"><g
         id="g1475"><g
           id="g1466"><ellipse
             style="opacity:1;fill:#ffffff;fill-opacity:1;fill-rule:nonzero;stroke:none;stroke-width:0.7495113;stroke-linecap:round;stroke-miterlimit:4;stroke-dasharray:none;stroke-opacity:1"
             id="path838"
             cx="396.44821"
             cy="-304.3092"
             transform="scale(1,-1)"
             rx="131.23801"
             ry="130.80788" /><g
             style="display:inline;fill:#000000"
             transform="translate(396.4482,426.1172)"
             id="g26"><path
               inkscape:connector-curvature="0"
               id="path28"
               style="fill:#000000;fill-opacity:1;fill-rule:nonzero;stroke:none"
               d="m 0,0 c -67.402,0 -122.238,-54.644 -122.238,-121.809 0,-67.165 54.836,-121.807 122.238,-121.807 67.402,0 122.238,54.642 122.238,121.807 C 122.238,-54.644 67.402,0 0,0 m 0,-252.616 c -72.365,0 -131.238,58.68 -131.238,130.807 C -131.238,-49.681 -72.365,9 0,9 72.365,9 131.238,-49.681 131.238,-121.809 131.238,-193.936 72.365,-252.616 0,-252.616" /></g><a
             transform="matrix(0.75000002,0,0,-0.75000002,0,612.00002)"
             id="a4597"
             style="display:inline"><circle
               style="opacity:1;fill:none;fill-opacity:1;fill-rule:nonzero;stroke:#000000;stroke-width:7.55905533;stroke-linecap:round;stroke-miterlimit:4;stroke-dasharray:none;stroke-opacity:1"
               id="path4588"
               cx="530.24213"
               cy="417.4592"
               r="108.12416" /></a></g><g
           style="fill:#000000"
           id="g14"
           transform="translate(396.667,147.833)"><path
             d="m 0,0 -18,98.334 -160.334,44.333 149,-17.333 -33,75.666 42,-51 L -1,316.334 20,150.001 l 41.333,50 L 29,125.668 l 148,19 -157,-44.667 z"
             style="fill:#000000;fill-opacity:1;fill-rule:nonzero;stroke:none"
             id="path16"
             inkscape:connector-curvature="0" /></g></g><g
         id="g1491"><g
           aria-label="POSH"
           style="font-style:normal;font-variant:normal;font-weight:normal;font-stretch:normal;font-size:40px;line-height:1.25;font-family:'ChunkFive Ex';-inkscape-font-specification:'ChunkFive Ex';letter-spacing:0px;word-spacing:0px;display:inline;opacity:1;fill:#000000;fill-opacity:1;stroke:none"
           id="text1120"
           transform="matrix(0.75000002,0,0,-0.75000002,0,612.00002)"><path
             d="m 565.7766,259.31923 18.23448,6.73925 q 4.8963,1.80961 7.56097,3.94585 2.68548,2.07995 3.74985,4.39233 1.08518,2.25611 0.83676,4.659 -0.17133,2.36741 -1.06574,4.78742 -1.04,2.81396 -2.99147,4.45949 -1.95147,1.64553 -4.49753,2.30371 -2.52526,0.60189 -5.49706,0.33512 -2.89473,-0.30226 -5.93381,-1.42547 l -4.27722,-1.58081 -3.22402,8.72329 3.43303,1.26881 -2.74562,7.42886 -18.12192,-6.69765 2.74562,-7.42886 3.15164,1.16481 9.06886,-24.53776 -3.15164,-1.1648 z m 11.98487,12.74514 -3.61923,9.79259 2.53257,0.93601 q 2.47629,0.91521 4.43263,0.29495 1.97714,-0.67654 2.80915,-2.92771 0.93601,-2.53257 0.007,-4.347 -0.8723,-1.79362 -3.34859,-2.70883 z"
             style="font-style:normal;font-variant:normal;font-weight:normal;font-stretch:normal;font-size:60px;font-family:'ChunkFive Ex';-inkscape-font-specification:'ChunkFive Ex, Normal';font-variant-ligatures:normal;font-variant-caps:normal;font-variant-numeric:normal;font-feature-settings:normal;text-align:start;writing-mode:lr-tb;text-anchor:start"
             id="path1435"
             inkscape:connector-curvature="0" /><path
             d="m 602.83838,326.57867 q -3.55967,-3.03827 -5.67581,-6.65877 -2.11613,-3.62049 -2.5149,-7.5895 -0.35313,-3.93005 1.10238,-8.1307 1.5401,-4.20734 5.2016,-8.49721 3.15513,-3.69658 6.90586,-5.78045 3.79635,-2.04491 7.76536,-2.44368 4.05359,-0.40545 7.98711,0.90093 4.0181,1.2997 7.57778,4.33797 4.19859,3.58361 6.20455,7.4256 2.09055,3.83531 2.18992,7.78542 0.18395,3.94342 -1.54538,7.91036 -1.68369,4.00589 -4.95568,7.83939 -3.31094,3.87913 -7.00934,6.08654 -3.65944,2.16177 -7.54386,2.55385 -3.88441,0.39208 -7.87025,-1.03784 -3.9402,-1.39097 -7.81934,-4.70191 z m 6.1155,-7.16499 q 1.09529,0.93485 2.50103,0.95144 1.45139,0.0555 3.09638,-0.67028 1.69062,-0.68686 3.49027,-2.1484 1.79964,-1.46153 3.63039,-3.60647 1.7918,-2.09929 2.99148,-4.1518 1.28427,-2.05919 1.77497,-3.92799 0.57529,-1.87548 0.2791,-3.46931 -0.29619,-1.59382 -1.61966,-2.72343 -1.04965,-0.8959 -2.53998,-0.90581 -1.40575,-0.0166 -3.13533,0.71592 -1.68394,0.77145 -3.56817,2.23967 -1.83859,1.50718 -3.6304,3.60647 -1.90866,2.23621 -3.10165,4.3733 -1.1084,2.13041 -1.56015,3.95357 -0.40611,1.86212 -0.0776,3.32572 0.37409,1.50255 1.46937,2.4374 z"
             style="font-style:normal;font-variant:normal;font-weight:normal;font-stretch:normal;font-size:60px;font-family:'ChunkFive Ex';-inkscape-font-specification:'ChunkFive Ex, Normal';font-variant-ligatures:normal;font-variant-caps:normal;font-variant-numeric:normal;font-feature-settings:normal;text-align:start;writing-mode:lr-tb;text-anchor:start"
             id="path1437"
             inkscape:connector-curvature="0" /><path
             d="m 621.18721,341.87048 13.29484,-7.20152 5.3154,9.81285 q -1.63547,0.8859 -2.29053,2.19605 -0.60231,1.28158 -0.63967,2.59832 -0.009,1.36949 0.38032,2.59171 0.41767,1.27497 0.87491,2.11908 0.37151,0.68585 0.90569,1.42005 0.53417,0.73421 1.14089,1.22441 0.68805,0.51438 1.39148,0.67924 0.78477,0.18904 1.62889,-0.2682 1.00239,-0.54297 0.80673,-2.41586 -0.11433,-1.84871 -0.71007,-4.46021 -0.56716,-2.55873 -1.20468,-5.62526 -0.58475,-3.0951 -0.38914,-6.13525 0.2242,-2.9874 1.5585,-5.68903 1.41564,-2.67746 4.7921,-4.50642 2.90165,-1.57176 5.72198,-1.53002 2.84891,0.0945 5.22081,1.19799 2.40047,1.15625 4.25799,2.94779 1.8861,1.8443 2.94347,3.79632 0.8859,1.63548 1.45525,3.44242 0.62212,1.77836 0.7892,3.59849 0.16708,1.82014 -0.25936,3.55234 -0.34511,1.75639 -1.39365,3.34792 l 4.71739,-1.87293 4.91532,9.07425 -13.24208,7.17294 -5.17252,-9.54907 q 1.47721,-0.80017 2.29934,-1.92787 0.87488,-1.15627 1.15185,-2.53457 0.30554,-1.32553 -0.011,-2.79175 -0.23522,-1.44203 -0.97824,-2.81372 -0.31435,-0.58033 -0.86831,-1.09911 -0.5012,-0.54736 -1.18485,-0.92764 -0.60232,-0.35611 -1.32993,-0.43964 -0.69904,-0.0308 -1.38488,0.34074 -1.37169,0.74301 -1.43982,2.75879 -0.0395,2.06854 0.4265,4.81852 0.46605,2.74998 0.97386,5.95499 0.56058,3.17644 0.4463,6.24077 -0.11428,3.06434 -1.34307,5.70882 -1.20021,2.69724 -4.31289,4.38331 -3.11268,1.68607 -5.9374,1.51023 -2.79615,-0.12307 -5.28236,-1.43759 -2.40488,-1.29034 -4.32835,-3.45558 -1.92347,-2.16524 -3.20945,-4.53932 -1.08595,-2.00478 -1.57837,-3.92163 -0.49242,-1.91685 -0.54959,-3.66005 -0.0572,-1.74319 0.18683,-3.30833 0.32532,-1.54097 0.82211,-2.76539 l -4.37666,1.62014 z"
             style="font-style:normal;font-variant:normal;font-weight:normal;font-stretch:normal;font-size:60px;font-family:'ChunkFive Ex';-inkscape-font-specification:'ChunkFive Ex, Normal';font-variant-ligatures:normal;font-variant-caps:normal;font-variant-numeric:normal;font-feature-settings:normal;text-align:start;writing-mode:lr-tb;text-anchor:start"
             id="path1439"
             inkscape:connector-curvature="0" /><path
             d="m 683.09111,374.925 2.32546,19.30041 -7.86313,0.94741 -0.445,-3.69329 -8.99494,1.08378 1.36369,11.31814 8.99494,-1.08378 -0.42346,-3.51458 7.86313,-0.94741 2.33263,19.35998 -7.86313,0.94741 -0.41628,-3.45501 -25.91259,3.12214 0.41629,3.45501 -7.86313,0.94741 -2.33264,-19.35998 7.86313,-0.94741 0.42347,3.51458 8.99494,-1.08377 -1.36369,-11.31815 -8.99495,1.08378 0.445,3.69329 -7.86313,0.94741 -2.32546,-19.30041 7.86313,-0.94741 0.39475,3.2763 25.91259,-3.12214 -0.39475,-3.2763 z"
             style="font-style:normal;font-variant:normal;font-weight:normal;font-stretch:normal;font-size:60px;font-family:'ChunkFive Ex';-inkscape-font-specification:'ChunkFive Ex, Normal';font-variant-ligatures:normal;font-variant-caps:normal;font-variant-numeric:normal;font-feature-settings:normal;text-align:start;writing-mode:lr-tb;text-anchor:start"
             id="path1441"
             inkscape:connector-curvature="0" /></g><g
           id="g928"
           style="display:inline;fill:#000000"><g
             transform="translate(286.3662,325.3594)"
             id="g34"
             style="fill:#000000"><path
               inkscape:connector-curvature="0"
               id="path36"
               style="fill:#000000;fill-opacity:1;fill-rule:nonzero;stroke:none"
               d="m 0,0 -0.189,-2.907 25.108,-1.635 -0.616,-9.471 -17.515,-10.14 11.101,-0.723 0.221,3.392 5.682,-0.37 -0.88,-13.524 -5.683,0.37 0.169,2.599 -19.425,1.265 -0.167,-2.555 -5.683,0.37 0.823,12.642 16.872,9.785 -10.484,0.682 -0.198,-3.04 -5.682,0.37 0.862,13.26 z" /></g><g
             transform="translate(313.6436,341.9844)"
             id="g38"
             style="fill:#000000"><path
               inkscape:connector-curvature="0"
               id="path40"
               style="fill:#000000;fill-opacity:1;fill-rule:nonzero;stroke:none"
               d="m 0,0 c 0.308,0.668 0.372,1.355 0.192,2.063 -0.18,0.708 -0.559,1.424 -1.138,2.147 -0.578,0.723 -1.352,1.425 -2.32,2.108 -0.968,0.683 -2.106,1.327 -3.416,1.93 -1.28,0.591 -2.512,1.049 -3.696,1.376 -1.184,0.326 -2.272,0.491 -3.268,0.494 -0.995,0.003 -1.864,-0.179 -2.607,-0.545 -0.743,-0.367 -1.301,-0.954 -1.674,-1.761 -0.295,-0.641 -0.345,-1.318 -0.151,-2.033 0.194,-0.715 0.595,-1.438 1.2,-2.174 0.607,-0.736 1.404,-1.459 2.395,-2.168 0.989,-0.709 2.125,-1.36 3.405,-1.951 1.365,-0.63 2.651,-1.08 3.86,-1.35 1.21,-0.272 2.298,-0.384 3.263,-0.34 0.967,0.044 1.79,0.256 2.471,0.634 0.68,0.378 1.175,0.901 1.484,1.57 m 6.558,-3.025 c -1.002,-2.172 -2.247,-4.03 -3.736,-5.573 -1.487,-1.542 -3.177,-2.679 -5.068,-3.411 -1.891,-0.732 -3.975,-1.021 -6.251,-0.866 -2.275,0.155 -4.722,0.836 -7.34,2.044 -2.256,1.04 -4.152,2.346 -5.69,3.916 -1.538,1.57 -2.684,3.315 -3.438,5.233 -0.753,1.917 -1.085,3.945 -0.994,6.081 0.091,2.137 0.637,4.291 1.639,6.463 1.181,2.562 2.575,4.613 4.179,6.153 1.606,1.539 3.37,2.616 5.291,3.233 1.922,0.615 3.982,0.78 6.18,0.493 2.197,-0.288 4.466,-0.971 6.805,-2.05 C 0.502,17.6 2.478,16.3 4.062,14.792 5.646,13.284 6.804,11.603 7.534,9.746 8.266,7.889 8.559,5.888 8.413,3.743 8.268,1.598 7.649,-0.659 6.558,-3.025" /></g><g
             transform="translate(330.8037,373.4014)"
             id="g42"
             style="fill:#000000"><path
               inkscape:connector-curvature="0"
               id="path44"
               style="fill:#000000;fill-opacity:1;fill-rule:nonzero;stroke:none"
               d="m 0,0 c -0.393,0.478 -0.847,1.162 -1.362,2.054 -0.515,0.891 -1,1.897 -1.453,3.017 l -3.923,9.609 -1.619,-1.612 -4.029,4.049 8.813,8.771 4.029,-4.048 -1.526,-1.519 10.161,-25.158 -5.73,-5.702 -25.887,9.506 -1.713,-1.705 -4.03,4.049 11.492,11.435 4.029,-4.048 -1.713,-1.704 9.59,-4.342 c 1.014,-0.519 1.933,-1.019 2.761,-1.497 0.827,-0.479 1.478,-0.916 1.955,-1.309 z" /></g><g
             transform="translate(355.1973,394.9102)"
             id="g46"
             style="fill:#000000"><path
               inkscape:connector-curvature="0"
               id="path48"
               style="fill:#000000;fill-opacity:1;fill-rule:nonzero;stroke:none"
               d="M 0,0 5.155,2.215 -1.095,9.6 Z m 24.874,-4.184 -15.78,-6.781 -2.216,5.155 3.739,1.608 -1.976,2.32 -8.068,-3.467 0.323,-3.031 3.07,1.319 2.215,-5.155 -12.515,-5.378 -2.215,5.156 2.677,1.15 -2.111,19.559 -1.614,-0.693 -2.181,5.076 15.112,6.493 16.57,-19.359 2.755,1.184 z" /></g></g></g></g></g></svg>