<?xml version="1.0" encoding="UTF-8" standalone="no"?>
<!-- Created with Inkscape (http://www.inkscape.org/) -->

<svg
   xmlns:dc="http://purl.org/dc/elements/1.1/"
   xmlns:cc="http://creativecommons.org/ns#"
   xmlns:rdf="http://www.w3.org/1999/02/22-rdf-syntax-ns#"
   xmlns:svg="http://www.w3.org/2000/svg"
   xmlns="http://www.w3.org/2000/svg"
   xmlns:sodipodi="http://sodipodi.sourceforge.net/DTD/sodipodi-0.dtd"
   xmlns:inkscape="http://www.inkscape.org/namespaces/inkscape"
   version="1.1"
   id="svg2"
   xml:space="preserve"
   width="493.77866"
   height="441.77866"
   viewBox="0 0 493.77866 441.77866"
   sodipodi:docname="NoVa_PSUG.svg"
   inkscape:version="0.92.2 (5c3e80d, 2017-08-06)"
   inkscape:export-filename="C:\Users\schu\Pictures\Nova\NoVa_PSUG.png"
   inkscape:export-xdpi="46.52"
   inkscape:export-ydpi="46.52"><metadata
     id="metadata8"><rdf:RDF><cc:Work
         rdf:about=""><dc:format>image/svg+xml</dc:format><dc:type
           rdf:resource="http://purl.org/dc/dcmitype/StillImage" /><dc:title /></cc:Work></rdf:RDF></metadata><defs
     id="defs6"><clipPath
       clipPathUnits="userSpaceOnUse"
       id="clipPath24"><path
         d="M 0,612 H 792 V 0 H 0 Z"
         id="path22"
         inkscape:connector-curvature="0" /></clipPath></defs><sodipodi:namedview
     pagecolor="#ffffff"
     bordercolor="#666666"
     borderopacity="1"
     objecttolerance="10"
     gridtolerance="10"
     guidetolerance="10"
     inkscape:pageopacity="0"
     inkscape:pageshadow="2"
     inkscape:window-width="1050"
     inkscape:window-height="1617"
     id="namedview4"
     showgrid="false"
     inkscape:zoom="0.57843135"
     inkscape:cx="177.78405"
     inkscape:cy="452.56938"
     inkscape:window-x="1672"
     inkscape:window-y="-8"
     inkscape:window-maximized="1"
     inkscape:current-layer="g4638"
     fit-margin-left="10"
     fit-margin-right="10"
     fit-margin-bottom="10"
     fit-margin-top="10" /><g
     id="g10"
     inkscape:groupmode="layer"
     inkscape:label="nova_psug"
     transform="matrix(1.3333333,0,0,-1.3333333,-281.11066,628.88932)"
     style="display:inline"><g
       id="g4638"><g
         id="g4630"><ellipse
           style="display:inline;opacity:1;fill:#ffffff;fill-opacity:1;fill-rule:nonzero;stroke:none;stroke-width:0.7495113;stroke-linecap:round;stroke-miterlimit:4;stroke-dasharray:none;stroke-opacity:1"
           id="path838"
           cx="396.44821"
           cy="-304.3092"
           rx="131.23801"
           ry="130.80788"
           transform="scale(1,-1)" /><path
           inkscape:connector-curvature="0"
           id="path28"
           style="fill:#000000;fill-opacity:1;fill-rule:nonzero;stroke:none"
           d="m 396.4482,426.1172 c -67.402,0 -122.238,-54.644 -122.238,-121.809 0,-67.165 54.836,-121.807 122.238,-121.807 67.402,0 122.238,54.642 122.238,121.807 0,67.165 -54.836,121.809 -122.238,121.809 m 0,-252.616 c -72.365,0 -131.238,58.68 -131.238,130.807 0,72.128 58.873,130.809 131.238,130.809 72.365,0 131.238,-58.681 131.238,-130.809 0,-72.127 -58.873,-130.807 -131.238,-130.807" /><a
           style="display:inline"
           id="a4597"
           transform="matrix(0.75000002,0,0,-0.75000002,0,612.00002)"><circle
             r="108.12416"
             cy="417.4592"
             cx="530.24213"
             id="path4588"
             style="opacity:1;fill:none;fill-opacity:1;fill-rule:nonzero;stroke:#000000;stroke-width:7.55905533;stroke-linecap:round;stroke-miterlimit:4;stroke-dasharray:none;stroke-opacity:1" /></a></g><g
         transform="translate(396.667,147.833)"
         id="g14"
         style="fill:#000000"><path
           inkscape:connector-curvature="0"
           id="path16"
           style="fill:#000000;fill-opacity:1;fill-rule:nonzero;stroke:none"
           d="m 0,0 -18,98.334 -160.334,44.333 149,-17.333 -33,75.666 42,-51 L -1,316.334 20,150.001 l 41.333,50 L 29,125.668 l 148,19 -157,-44.667 z" /></g></g><g
       id="g928"
       style="display:inline;fill:#000000"><g
         transform="translate(286.3662,325.3594)"
         id="g34"
         style="fill:#000000"><path
           inkscape:connector-curvature="0"
           id="path36"
           style="fill:#000000;fill-opacity:1;fill-rule:nonzero;stroke:none"
           d="m 0,0 -0.189,-2.907 25.108,-1.635 -0.616,-9.471 -17.515,-10.14 11.101,-0.723 0.221,3.392 5.682,-0.37 -0.88,-13.524 -5.683,0.37 0.169,2.599 -19.425,1.265 -0.167,-2.555 -5.683,0.37 0.823,12.642 16.872,9.785 -10.484,0.682 -0.198,-3.04 -5.682,0.37 0.862,13.26 z" /></g><g
         transform="translate(313.6436,341.9844)"
         id="g38"
         style="fill:#000000"><path
           inkscape:connector-curvature="0"
           id="path40"
           style="fill:#000000;fill-opacity:1;fill-rule:nonzero;stroke:none"
           d="m 0,0 c 0.308,0.668 0.372,1.355 0.192,2.063 -0.18,0.708 -0.559,1.424 -1.138,2.147 -0.578,0.723 -1.352,1.425 -2.32,2.108 -0.968,0.683 -2.106,1.327 -3.416,1.93 -1.28,0.591 -2.512,1.049 -3.696,1.376 -1.184,0.326 -2.272,0.491 -3.268,0.494 -0.995,0.003 -1.864,-0.179 -2.607,-0.545 -0.743,-0.367 -1.301,-0.954 -1.674,-1.761 -0.295,-0.641 -0.345,-1.318 -0.151,-2.033 0.194,-0.715 0.595,-1.438 1.2,-2.174 0.607,-0.736 1.404,-1.459 2.395,-2.168 0.989,-0.709 2.125,-1.36 3.405,-1.951 1.365,-0.63 2.651,-1.08 3.86,-1.35 1.21,-0.272 2.298,-0.384 3.263,-0.34 0.967,0.044 1.79,0.256 2.471,0.634 0.68,0.378 1.175,0.901 1.484,1.57 m 6.558,-3.025 c -1.002,-2.172 -2.247,-4.03 -3.736,-5.573 -1.487,-1.542 -3.177,-2.679 -5.068,-3.411 -1.891,-0.732 -3.975,-1.021 -6.251,-0.866 -2.275,0.155 -4.722,0.836 -7.34,2.044 -2.256,1.04 -4.152,2.346 -5.69,3.916 -1.538,1.57 -2.684,3.315 -3.438,5.233 -0.753,1.917 -1.085,3.945 -0.994,6.081 0.091,2.137 0.637,4.291 1.639,6.463 1.181,2.562 2.575,4.613 4.179,6.153 1.606,1.539 3.37,2.616 5.291,3.233 1.922,0.615 3.982,0.78 6.18,0.493 2.197,-0.288 4.466,-0.971 6.805,-2.05 C 0.502,17.6 2.478,16.3 4.062,14.792 5.646,13.284 6.804,11.603 7.534,9.746 8.266,7.889 8.559,5.888 8.413,3.743 8.268,1.598 7.649,-0.659 6.558,-3.025" /></g><g
         transform="translate(330.8037,373.4014)"
         id="g42"
         style="fill:#000000"><path
           inkscape:connector-curvature="0"
           id="path44"
           style="fill:#000000;fill-opacity:1;fill-rule:nonzero;stroke:none"
           d="m 0,0 c -0.393,0.478 -0.847,1.162 -1.362,2.054 -0.515,0.891 -1,1.897 -1.453,3.017 l -3.923,9.609 -1.619,-1.612 -4.029,4.049 8.813,8.771 4.029,-4.048 -1.526,-1.519 10.161,-25.158 -5.73,-5.702 -25.887,9.506 -1.713,-1.705 -4.03,4.049 11.492,11.435 4.029,-4.048 -1.713,-1.704 9.59,-4.342 c 1.014,-0.519 1.933,-1.019 2.761,-1.497 0.827,-0.479 1.478,-0.916 1.955,-1.309 z" /></g><g
         transform="translate(355.1973,394.9102)"
         id="g46"
         style="fill:#000000"><path
           inkscape:connector-curvature="0"
           id="path48"
           style="fill:#000000;fill-opacity:1;fill-rule:nonzero;stroke:none"
           d="M 0,0 5.155,2.215 -1.095,9.6 Z m 24.874,-4.184 -15.78,-6.781 -2.216,5.155 3.739,1.608 -1.976,2.32 -8.068,-3.467 0.323,-3.031 3.07,1.319 2.215,-5.155 -12.515,-5.378 -2.215,5.156 2.677,1.15 -2.111,19.559 -1.614,-0.693 -2.181,5.076 15.112,6.493 16.57,-19.359 2.755,1.184 z" /></g></g><g
       aria-label="PSUG"
       transform="matrix(0.75000002,0,0,-0.75000002,0,612.00002)"
       style="font-style:normal;font-variant:normal;font-weight:normal;font-stretch:normal;font-size:40px;line-height:1.25;font-family:'ChunkFive Ex';-inkscape-font-specification:'ChunkFive Ex';letter-spacing:0px;word-spacing:0px;display:inline;opacity:1;fill:#000000;fill-opacity:1;stroke:none"
       id="text1120"><path
         d="m 565.7766,259.31923 18.23448,6.73925 q 4.8963,1.80961 7.56097,3.94585 2.68548,2.07995 3.74985,4.39233 1.08518,2.25611 0.83676,4.659 -0.17133,2.36741 -1.06574,4.78742 -1.04,2.81396 -2.99147,4.45949 -1.95147,1.64553 -4.49753,2.30371 -2.52526,0.60189 -5.49706,0.33512 -2.89473,-0.30226 -5.93381,-1.42547 l -4.27722,-1.58081 -3.22402,8.72329 3.43303,1.26881 -2.74562,7.42886 -18.12192,-6.69765 2.74562,-7.42886 3.15164,1.16481 9.06886,-24.53776 -3.15164,-1.1648 z m 11.98487,12.74514 -3.61923,9.79259 2.53257,0.93601 q 2.47629,0.91521 4.43263,0.29495 1.97714,-0.67654 2.80915,-2.92771 0.93601,-2.53257 0.007,-4.347 -0.8723,-1.79362 -3.34859,-2.70883 z"
         style="font-style:normal;font-variant:normal;font-weight:normal;font-stretch:normal;font-size:60px;font-family:'ChunkFive Ex';-inkscape-font-specification:'ChunkFive Ex, Normal';font-variant-ligatures:normal;font-variant-caps:normal;font-variant-numeric:normal;font-feature-settings:normal;text-align:start;writing-mode:lr-tb;text-anchor:start"
         id="path4651"
         inkscape:connector-curvature="0" /><path
         d="m 587.56049,312.31676 9.7301,-11.57323 8.54214,7.18173 q -1.19695,1.4237 -1.32623,2.88277 -0.0907,1.41314 0.3572,2.65194 0.49378,1.27741 1.30377,2.27196 0.85592,1.03315 1.59073,1.65093 0.59703,0.50195 1.36314,0.98927 0.7661,0.48733 1.51027,0.72104 0.8287,0.22639 1.5436,0.12195 0.79945,-0.11175 1.41723,-0.84656 0.73362,-0.87258 -0.13488,-2.54342 -0.78397,-1.67815 -2.29543,-3.88955 -1.46553,-2.17279 -3.18263,-4.79225 -1.6785,-2.66538 -2.61078,-5.56566 -0.88636,-2.86168 -0.63513,-5.86436 0.33576,-3.00999 2.8069,-5.94922 2.12363,-2.5259 4.76299,-3.52079 2.68528,-0.95627 5.29657,-0.79893 2.65722,0.19595 5.04212,1.18199 2.43082,1.02465 4.13006,2.45328 1.42369,1.19695 2.61572,2.66946 1.23063,1.42659 2.05321,3.05881 0.82257,1.63223 1.0607,3.40019 0.32267,1.76065 -0.0696,3.62574 l 3.70262,-3.47163 7.89919,6.64118 -9.69148,11.5273 -8.31252,-6.98868 q 1.08112,-1.28591 1.43271,-2.63646 0.3902,-1.39648 0.14271,-2.78037 -0.20156,-1.34528 -1.03349,-2.59343 -0.7474,-1.25547 -1.94146,-2.25937 -0.50518,-0.42472 -1.21074,-0.70436 -0.66694,-0.32556 -1.4424,-0.42881 -0.69092,-0.11056 -1.39851,0.0784 -0.66167,0.22759 -1.16362,0.82462 -1.0039,1.19407 -0.32846,3.09453 0.72137,1.93908 2.16292,4.32687 1.44155,2.38779 3.08875,5.18363 1.68581,2.74992 2.70263,5.64289 1.01682,2.89297 0.84282,5.8038 -0.12809,2.94944 -2.40616,5.65904 -2.27808,2.70961 -4.97068,3.58134 -2.64667,0.91035 -5.44167,0.59856 -2.71045,-0.3191 -5.29368,-1.62866 -2.58322,-1.30955 -4.64987,-3.04707 -1.74517,-1.46724 -2.9059,-3.07021 -1.16072,-1.60297 -1.85283,-3.2039 -0.69212,-1.60093 -1.03877,-3.14658 -0.26212,-1.55297 -0.24868,-2.87426 l -3.47826,3.11154 z"
         style="font-style:normal;font-variant:normal;font-weight:normal;font-stretch:normal;font-size:60px;font-family:'ChunkFive Ex';-inkscape-font-specification:'ChunkFive Ex, Normal';font-variant-ligatures:normal;font-variant-caps:normal;font-variant-numeric:normal;font-feature-settings:normal;text-align:start;writing-mode:lr-tb;text-anchor:start"
         id="path4653"
         inkscape:connector-curvature="0" /><path
         d="m 656.61246,319.60005 9.22824,16.69988 -6.77449,3.74353 -1.56705,-2.83583 -11.34332,6.26823 q -3.15092,1.74118 -4.97239,3.15902 -1.79245,1.47035 -2.57053,2.79148 -0.72557,1.29211 -0.62334,2.46954 0.13125,1.22995 0.82772,2.49032 0.66745,1.20785 1.5049,1.97901 0.91898,0.79466 2.34654,0.89696 1.5091,0.12581 3.70782,-0.60933 2.25123,-0.76416 5.66473,-2.65043 l 11.13326,-6.15215 -1.56706,-2.83583 6.93203,-3.83059 8.5898,15.54455 -6.77448,3.74352 -1.56706,-2.83583 -12.76123,7.05177 q -9.34774,5.16548 -15.82494,3.74049 -6.47721,-1.42499 -10.56897,-8.82966 -4.1484,-8.12743 -2.18721,-14.62673 2.01371,-6.52832 10.99384,-11.49067 l 12.97129,-7.16785 -1.62509,-2.94086 z"
         style="font-style:normal;font-variant:normal;font-weight:normal;font-stretch:normal;font-size:60px;font-family:'ChunkFive Ex';-inkscape-font-specification:'ChunkFive Ex, Normal';font-variant-ligatures:normal;font-variant-caps:normal;font-variant-numeric:normal;font-feature-settings:normal;text-align:start;writing-mode:lr-tb;text-anchor:start"
         id="path4655"
         inkscape:connector-curvature="0" /><path
         d="m 648.51455,406.95676 q -1.78995,-0.81172 -3.4091,-3.21529 -1.61914,-2.40357 -2.03543,-5.85858 -0.4737,-3.93157 0.54685,-7.49927 1.08013,-3.57487 3.51169,-6.4665 2.43873,-2.83207 6.13129,-4.78782 3.69974,-1.89618 8.52485,-2.47755 4.88467,-0.58854 9.06241,0.47938 4.23732,1.06075 7.40526,3.27771 3.22752,2.20979 5.23064,5.2923 2.00311,3.08252 2.42658,6.5971 0.38757,3.21674 -0.0165,5.38061 -0.40405,2.16387 -1.0873,3.5153 -0.67606,1.41101 -1.43108,2.16675 -0.75502,0.75574 -1.06937,1.15622 l 4.4397,0.73419 1.06942,8.87581 -17.5729,2.1173 -1.28474,-10.66288 q 1.7799,-0.27489 3.13778,-1.04284 1.36507,-0.70837 2.20334,-1.77632 0.83827,-1.06794 1.17127,-2.31674 0.39258,-1.25598 0.23468,-2.5665 -0.21532,-1.78708 -1.35504,-3.22104 -1.07297,-1.38157 -2.75096,-2.2672 -1.61842,-0.89282 -3.77511,-1.2373 -2.09713,-0.35167 -4.30118,-0.0861 -2.26363,0.27274 -4.22439,1.05289 -1.90119,0.77298 -3.2684,1.96508 -1.36004,1.25168 -2.07414,2.84857 -0.64736,1.64928 -0.41051,3.61506 0.30862,2.56148 1.29331,3.71195 1.04427,1.14329 2.3146,1.65501 l 2.5019,-0.30145 -0.43781,-3.63372 6.3739,-0.76797 2.38287,19.77696 -6.37391,0.76798 -0.28709,-2.38277 -14.89229,1.79433 -1.43546,-11.91384 z"
         style="font-style:normal;font-variant:normal;font-weight:normal;font-stretch:normal;font-size:60px;font-family:'ChunkFive Ex';-inkscape-font-specification:'ChunkFive Ex, Normal';font-variant-ligatures:normal;font-variant-caps:normal;font-variant-numeric:normal;font-feature-settings:normal;text-align:start;writing-mode:lr-tb;text-anchor:start"
         id="path4657"
         inkscape:connector-curvature="0" /></g></g></svg>