<?xml version="1.0" encoding="UTF-8" standalone="no"?>
<!-- Created with Inkscape (http://www.inkscape.org/) -->

<svg
   xmlns:dc="http://purl.org/dc/elements/1.1/"
   xmlns:cc="http://creativecommons.org/ns#"
   xmlns:rdf="http://www.w3.org/1999/02/22-rdf-syntax-ns#"
   xmlns:svg="http://www.w3.org/2000/svg"
   xmlns="http://www.w3.org/2000/svg"
   xmlns:xlink="http://www.w3.org/1999/xlink"
   xmlns:sodipodi="http://sodipodi.sourceforge.net/DTD/sodipodi-0.dtd"
   xmlns:inkscape="http://www.inkscape.org/namespaces/inkscape"
   width="66.584114mm"
   height="66.584114mm"
   viewBox="0 0 66.584114 66.584114"
   version="1.1"
   id="svg8"
   inkscape:version="0.92.2 (5c3e80d, 2017-08-06)"
   sodipodi:docname="PowerShell UserGroup D.svg"
   inkscape:export-filename="C:\Users\schu\DC PowerShell Users 05.png"
   inkscape:export-xdpi="46.52"
   inkscape:export-ydpi="46.52">
  <defs
     id="defs2">
    <ellipse
       ry="320"
       rx="160"
       cy="-56"
       cx="36"
       id="ellipse" />
    <g
       id="ellipses">
      <use
         id="use1876"
         fill="#0000ff"
         xlink:href="#ellipse" />
      <use
         id="use1878"
         transform="rotate(72)"
         fill="#0099ff"
         xlink:href="#ellipse" />
      <use
         id="use1880"
         transform="rotate(144)"
         fill="#00cc00"
         xlink:href="#ellipse" />
      <use
         id="use1882"
         transform="rotate(216)"
         fill="#cc9900"
         xlink:href="#ellipse" />
      <use
         id="use1884"
         transform="rotate(288)"
         fill="#ff0000"
         xlink:href="#ellipse" />
    </g>
  </defs>
  <sodipodi:namedview
     id="base"
     pagecolor="#ffffff"
     bordercolor="#666666"
     borderopacity="1.0"
     inkscape:pageopacity="0.0"
     inkscape:pageshadow="2"
     inkscape:zoom="1.979899"
     inkscape:cx="96.228018"
     inkscape:cy="106.2121"
     inkscape:document-units="mm"
     inkscape:current-layer="layer6"
     showgrid="false"
     inkscape:measure-start="398.571,710.357"
     inkscape:measure-end="0,0"
     inkscape:window-width="1680"
     inkscape:window-height="987"
     inkscape:window-x="-8"
     inkscape:window-y="-8"
     inkscape:window-maximized="1"
     showguides="false"
     fit-margin-top="0"
     fit-margin-left="0"
     fit-margin-bottom="0"
     fit-margin-right="0" />
  <metadata
     id="metadata5">
    <rdf:RDF>
      <cc:Work
         rdf:about="">
        <dc:format>image/svg+xml</dc:format>
        <dc:type
           rdf:resource="http://purl.org/dc/dcmitype/StillImage" />
        <dc:title />
      </cc:Work>
    </rdf:RDF>
  </metadata>
  <g
     inkscape:groupmode="layer"
     id="layer6"
     inkscape:label="Washington DC PowerShell Users Group"
     style="display:inline"
     transform="translate(-63.233603,-96.878703)">
    <g
       id="g5843">
      <g
         id="g5797">
        <g
           id="g5784">
          <circle
             r="32.692059"
             cx="96.525665"
             cy="130.17076"
             id="path4623"
             style="display:inline;opacity:1;fill:#ffffff;fill-opacity:1;stroke:#000000;stroke-width:1.20000005;stroke-linecap:round;stroke-linejoin:round;stroke-miterlimit:4;stroke-dasharray:none;stroke-dashoffset:0;stroke-opacity:1" />
          <g
             id="g5775">
            <ellipse
               cx="96.502098"
               cy="130.02425"
               rx="19.224062"
               ry="19.22406"
               style="opacity:1;fill:#0277bd;fill-opacity:1;stroke:#000000;stroke-width:1.29999995;stroke-linecap:round;stroke-linejoin:round;stroke-miterlimit:4;stroke-dasharray:none;stroke-dashoffset:0;stroke-opacity:1"
               id="path4637" />
            <g
               style="display:inline;fill:#000000"
               id="g1740"
               transform="matrix(1.1171272,0,0,1.1171272,72.707454,101.44384)">
              <g
                 id="g1727"
                 style="fill:#000000">
                <path
                   id="path1723"
                   d="m 25.057,23.922 c -0.608,-0.687 -1.114,-1.267 -1.531,-1.732 -2.43,-2.728 -4.656,-5.27 -7.063,-7.869 -1.102,-1.189 -1.453,-2.344 -0.13,-3.518 1.307,-1.16 2.592,-1.058 3.791,0.277 3.34,3.717 6.676,7.438 10.071,11.104 1.268,1.369 0.972,2.3 -0.424,3.315 -5.359,3.895 -10.687,7.833 -16.01,11.778 -1.196,0.887 -2.337,1.109 -3.304,-0.201 -1.066,-1.445 -0.08,-2.305 1.026,-3.114 3.955,-2.893 7.903,-5.798 11.834,-8.725 0.548,-0.407 1.278,-0.97 1.74,-1.315 z"
                   style="fill:#000000"
                   inkscape:connector-curvature="0" />
                <path
                   id="path1725"
                   d="M 21.75,37 C 20.625,37 20,36 20,35 c 0,-1 0.625,-2 1.75,-2 4.224,0 6.112,0 9.5,0 1.125,0 1.75,1 1.75,2 0,1 -0.625,2 -1.75,2 -2.125,0 -6.25,0 -9.5,0 z"
                   style="fill:#000000"
                   inkscape:connector-curvature="0" />
              </g>
            </g>
          </g>
        </g>
        <g
           transform="translate(2.625e-6)"
           id="g10853">
          <path
             inkscape:connector-curvature="0"
             d="m 72.875682,123.84205 c 0,1.05849 -0.858886,1.91737 -1.915128,1.91737 -1.060722,0 -1.919608,-0.85883 -1.919608,-1.91737 0,-1.05853 0.858886,-1.91742 1.919608,-1.91742 1.056242,0 1.915128,0.85889 1.915128,1.91742"
             id="path10443-6"
             style="display:inline;opacity:1;fill:#000000;fill-opacity:1;stroke-width:0.05745437" />
          <path
             inkscape:connector-curvature="0"
             d="m 123.93332,123.84205 c 0,1.05849 -0.85889,1.91737 -1.91513,1.91737 -1.06072,0 -1.91961,-0.85883 -1.91961,-1.91737 0,-1.05853 0.85889,-1.91742 1.91961,-1.91742 1.05624,0 1.91513,0.85889 1.91513,1.91742"
             id="path10443-6-1"
             style="display:inline;opacity:1;fill:#000000;fill-opacity:1;stroke-width:0.05745437" />
        </g>
      </g>
      <g
         id="g1592"
         style="display:inline"
         transform="translate(2.625e-6)">
        <g
           transform="translate(1.3125e-6)"
           aria-label="POWERSHELL USERS"
           style="font-style:normal;font-variant:normal;font-weight:normal;font-stretch:normal;font-size:9.87777805px;line-height:0;font-family:'Open Sans';-inkscape-font-specification:'Open Sans';letter-spacing:1.00541663px;word-spacing:0px;display:inline;fill:#000000;fill-opacity:1;stroke:none;stroke-width:0.26458332"
           id="text1027">
          <path
             d="m 71.299869,131.40171 q -1.103033,-0.0568 -1.653441,-0.80964 -0.550408,-0.7528 -0.481649,-2.08704 l 0.03773,-0.73214 -2.634758,-0.13578 0.05933,-1.1512 7.042077,0.36291 -0.104505,2.02785 q -0.06802,1.31978 -0.641249,1.94706 -0.573483,0.63209 -1.623533,0.57798 z m -1.129194,-3.57893 -0.03153,0.61173 q -0.04567,0.88628 0.24125,1.31641 0.286923,0.43012 0.942,0.46388 0.60691,0.0313 0.924661,-0.32422 0.317752,-0.3555 0.358213,-1.14063 l 0.04121,-0.79958 z"
             style="font-style:normal;font-variant:normal;font-weight:600;font-stretch:normal;font-size:9.87777805px;line-height:0;font-family:'Open Sans';-inkscape-font-specification:'Open Sans Semi-Bold';letter-spacing:0.46566662px;stroke-width:0.26458332"
             id="path1492"
             inkscape:connector-curvature="0" />
          <path
             d="m 71.15626,138.49952 q -1.689091,0.33431 -2.793524,-0.32718 -1.103497,-0.65676 -1.409719,-2.20391 -0.309967,-1.56608 0.450688,-2.5918 0.766323,-1.02193 2.479072,-1.36093 1.712748,-0.339 2.797319,0.32151 1.085508,0.66524 1.395475,2.23131 0.305285,1.54242 -0.460101,2.56909 -0.765387,1.02666 -2.45921,1.36191 z m -1.045086,-5.28019 q -1.277464,0.25285 -1.837779,0.89967 -0.555584,0.64588 -0.355182,1.65839 0.199465,1.00778 0.953529,1.38953 0.755,0.38649 2.046658,0.13084 1.272733,-0.25191 1.829253,-0.89306 0.557457,-0.63643 0.357992,-1.6442 -0.201339,-1.01724 -0.962006,-1.40752 -0.759732,-0.38555 -2.032465,-0.13365 z"
             style="letter-spacing:1.17475009px"
             id="path1494"
             inkscape:connector-curvature="0" />
          <path
             d="m 71.812911,147.42395 -0.62215,-1.0888 3.058229,-3.12514 q 0.200412,-0.20339 0.591066,-0.55994 0.394841,-0.35893 0.558759,-0.48037 -0.291941,0.11126 -0.774121,0.25902 -0.479788,0.15195 -0.725065,0.20878 l -4.213991,1.0636 -0.62215,-1.0888 2.613133,-2.54306 2.597578,-2.55085 0.583864,1.0218 -3.067798,2.91396 q -0.741224,0.69574 -1.348441,1.15937 0.382275,-0.15734 0.874626,-0.31646 0.492351,-0.15912 0.807622,-0.23928 l 4.145792,-1.04685 0.567113,0.99248 -3.009172,3.07489 q -0.414584,0.43132 -1.313744,1.16175 0.634733,-0.27936 1.696606,-0.56949 l 4.057254,-1.16291 0.579078,1.01342 z"
             style="letter-spacing:1.17475009px"
             id="path1496"
             inkscape:connector-curvature="0" />
          <path
             d="m 77.25907,153.28744 -2.870386,-2.76964 4.896254,-5.07437 2.870386,2.76963 -0.6765,0.70111 -2.040855,-1.96921 -1.332907,1.38139 1.912434,1.84531 -0.669802,0.69416 -1.912434,-1.8453 -1.537196,1.59312 2.040855,1.96921 z"
             style="letter-spacing:0.38364583px"
             id="path1498"
             inkscape:connector-curvature="0" />
          <path
             d="m 81.747146,151.88983 0.679104,0.42408 q 0.683195,0.42663 1.148409,0.36459 0.465215,-0.062 0.776888,-0.56114 0.316781,-0.50728 0.123365,-0.93512 -0.193417,-0.42785 -0.860247,-0.84426 l -0.646376,-0.40364 z m -0.505829,0.81001 -1.49194,2.38914 -0.977746,-0.61057 3.73496,-5.98102 1.689577,1.05508 q 1.157749,0.72298 1.443326,1.50406 0.285577,0.78109 -0.261127,1.65656 -0.697431,1.11684 -2.155615,0.86586 l 0.03669,3.70195 -1.112748,-0.69487 0.0601,-3.28328 z"
             style="letter-spacing:0.38364583px"
             id="path1500"
             inkscape:connector-curvature="0" />
          <path
             d="m 89.06669,157.37307 q -0.32168,0.88379 -1.143837,1.15427 -0.822158,0.27048 -1.946156,-0.13863 -1.123999,-0.40911 -1.713073,-1.01874 l 0.372818,-1.02429 q 0.375693,0.37798 0.838765,0.68511 0.467604,0.30878 0.907233,0.4688 0.64358,0.23425 1.036321,0.10003 0.397274,-0.13256 0.547391,-0.545 0.13527,-0.37164 -0.0517,-0.73226 -0.186971,-0.36062 -0.937556,-1.03416 -0.77283,-0.69704 -0.972912,-1.30367 -0.200082,-0.60662 0.04076,-1.26833 0.301883,-0.8294 1.064288,-1.09084 0.762405,-0.26143 1.754968,0.0998 0.951773,0.34643 1.742715,1.10652 l -0.66613,0.75841 q -0.748519,-0.69332 -1.441954,-0.94571 -0.525741,-0.19136 -0.881808,-0.0592 -0.354417,0.12764 -0.491337,0.50382 -0.09403,0.25833 -0.05289,0.48375 0.04279,0.22088 0.232675,0.47477 0.189887,0.25389 0.740671,0.75719 0.619166,0.56926 0.863406,0.95585 0.24424,0.38659 0.282446,0.77518 0.0382,0.3886 -0.125109,0.83729 z"
             style="letter-spacing:0.38364583px"
             id="path1502"
             inkscape:connector-curvature="0" />
          <path
             d="m 95.644931,160.32754 -1.148697,-0.1429 0.392382,-3.15413 -3.225926,-0.40131 -0.392382,3.15413 -1.143912,-0.14231 0.870505,-6.99748 1.143911,0.14231 -0.356061,2.86217 3.225926,0.40131 0.356061,-2.86217 1.148698,0.1429 z"
             style="font-style:normal;font-variant:normal;font-weight:600;font-stretch:normal;font-size:9.87777805px;line-height:0;font-family:'Open Sans';-inkscape-font-specification:'Open Sans Semi-Bold';letter-spacing:0.46566662px;stroke-width:0.26458332"
             id="path1504"
             inkscape:connector-curvature="0" />
          <path
             d="m 101.95927,159.81693 -3.965987,0.42536 -0.751955,-7.01122 3.965992,-0.42535 0.10389,0.96872 -2.819831,0.30243 0.204705,1.90866 2.642396,-0.2834 0.10286,0.95913 -2.642389,0.28339 0.236078,2.2012 2.819831,-0.30243 z"
             style="font-style:normal;font-variant:normal;font-weight:600;font-stretch:normal;font-size:9.87777805px;line-height:0;font-family:'Open Sans';-inkscape-font-specification:'Open Sans Semi-Bold';letter-spacing:0.46566662px;stroke-width:0.26458332"
             id="path1506"
             inkscape:connector-curvature="0" />
          <path
             d="m 103.91272,159.36722 -2.11706,-6.72611 1.09955,-0.34609 1.82021,5.78299 2.84778,-0.89634 0.29685,0.94313 z"
             style="letter-spacing:0.0635px"
             id="path1508"
             inkscape:connector-curvature="0" />
          <path
             d="m 109.03551,157.57085 -3.2936,-6.23496 1.01926,-0.53842 2.83177,5.36071 2.63984,-1.39449 0.46182,0.87426 z"
             style="letter-spacing:0.14022917px"
             id="path1510"
             inkscape:connector-curvature="0" />
          <path
             d="m 114.8832,144.3513 3.24571,3.20678 q 0.55582,0.54916 0.73711,1.20289 0.18125,0.6469 -0.0398,1.32352 -0.22106,0.6698 -0.8414,1.29767 -0.92203,0.93323 -1.92796,0.96317 -1.00593,0.0299 -1.87053,-0.8243 l -3.23199,-3.19323 0.81356,-0.82343 3.17366,3.1356 q 0.62101,0.61356 1.20082,0.61688 0.57981,0.003 1.16964,-0.59367 1.14577,-1.15967 -0.0722,-2.36306 l -3.1668,-3.12882 z"
             style="letter-spacing:0.14022917px"
             id="path1512"
             inkscape:connector-curvature="0" />
          <path
             d="m 121.57438,143.24432 q 0.79624,0.50055 0.88755,1.36123 0.0913,0.86068 -0.5453,1.87334 -0.63661,1.01266 -1.3566,1.46016 l -0.92283,-0.58013 q 0.44861,-0.28768 0.84636,-0.67571 0.40032,-0.3921 0.64931,-0.78818 0.36451,-0.57983 0.316,-0.99203 -0.046,-0.41628 -0.41753,-0.64987 -0.33483,-0.21049 -0.72673,-0.10364 -0.3919,0.10685 -1.20839,0.69878 -0.84413,0.60874 -1.47929,0.67661 -0.63515,0.0679 -1.23131,-0.30691 -0.74725,-0.46976 -0.84229,-1.27012 -0.095,-0.80036 0.46712,-1.6946 0.53906,-0.85749 1.44865,-1.47066 l 0.60116,0.81089 q -0.83539,0.58575 -1.22813,1.2105 -0.29777,0.47366 -0.24354,0.84957 0.0502,0.37335 0.38906,0.58641 0.23275,0.14631 0.46177,0.15356 0.22494,0.005 0.51312,-0.12749 0.28818,-0.13217 0.89617,-0.56463 0.68687,-0.48543 1.11622,-0.64279 0.42935,-0.15737 0.81728,-0.1129 0.38792,0.0445 0.79217,0.29861 z"
             style="letter-spacing:0.43920833px"
             id="path1514"
             inkscape:connector-curvature="0" />
          <path
             d="m 125.3824,138.88063 -1.41407,3.72966 -6.59343,-2.49985 1.41408,-3.72966 0.91099,0.3454 -1.00541,2.6518 1.79492,0.68053 0.94215,-2.48493 0.90197,0.34197 -0.94214,2.48494 2.07003,0.78484 1.00541,-2.6518 z"
             style="letter-spacing:0.58208334px"
             id="path1516"
             inkscape:connector-curvature="0" />
          <path
             d="m 122.35819,135.13304 0.11715,-0.79203 q 0.11785,-0.79679 -0.12504,-1.19839 -0.24289,-0.40159 -0.82498,-0.48769 -0.59163,-0.0875 -0.90644,0.26086 -0.3148,0.34836 -0.42983,1.12607 l -0.1115,0.75385 z m 0.94471,0.13973 2.78639,0.41212 -0.16866,1.14033 -6.97553,-1.03173 0.29145,-1.97052 q 0.19971,-1.35026 0.80144,-1.92434 0.60172,-0.57408 1.62276,-0.42306 1.30255,0.19265 1.65559,1.62954 l 3.37844,-1.51393 -0.19195,1.29777 -3.03339,1.25781 z"
             style="letter-spacing:0.58208334px"
             id="path1518"
             inkscape:connector-curvature="0" />
          <path
             d="m 124.44176,126.0439 q 0.93838,-0.0632 1.51828,0.57926 0.57989,0.64252 0.66034,1.83595 0.0804,1.19343 -0.23884,1.97873 l -1.08756,0.0733 q 0.19373,-0.49646 0.28733,-1.04419 0.0933,-0.55254 0.0618,-1.01932 -0.0461,-0.68334 -0.32766,-0.98824 -0.28191,-0.30971 -0.71982,-0.28019 -0.39461,0.0266 -0.64879,0.34344 -0.25418,0.31685 -0.56661,1.27572 -0.32491,0.98872 -0.79878,1.41705 -0.47387,0.42834 -1.17645,0.4757 -0.88064,0.0594 -1.42809,-0.53216 -0.54745,-0.59153 -0.61849,-1.64541 -0.0681,-1.01056 0.30713,-2.04134 l 0.96303,0.30247 q -0.33134,0.96498 -0.28171,1.70125 0.0376,0.55822 0.30251,0.8304 0.26007,0.27252 0.65949,0.24559 0.27429,-0.0185 0.46381,-0.14728 0.1847,-0.12847 0.3401,-0.40482 0.1554,-0.27635 0.39293,-0.98363 0.2702,-0.7965 0.52498,-1.17623 0.25478,-0.37973 0.59471,-0.57184 0.33994,-0.19211 0.81635,-0.22422 z"
             style="font-style:normal;font-variant:normal;font-weight:600;font-stretch:normal;font-size:9.87777805px;line-height:0;font-family:'Open Sans';-inkscape-font-specification:'Open Sans Semi-Bold';letter-spacing:0.46566662px;stroke-width:0.26458332"
             id="path1520"
             inkscape:connector-curvature="0" />
        </g>
        <g
           aria-label="WASHINGTON"
           style="font-style:normal;font-weight:normal;font-size:9.17222309px;line-height:0%;font-family:sans-serif;letter-spacing:-0.55297911px;word-spacing:0px;display:inline;fill:#e1242a;fill-opacity:1;stroke:none;stroke-width:0.26458332"
           id="text4649">
          <path
             d="m 77.655216,116.77751 -0.591879,1.10555 -4.272394,-0.93055 q -0.278793,-0.0617 -0.788403,-0.20326 -0.513862,-0.1438 -0.703833,-0.21815 0.24937,0.18821 0.630726,0.51821 0.383633,0.32574 0.562091,0.50335 l 3.139922,3.00497 -0.591878,1.10555 -3.542789,-0.86272 -3.541114,-0.84541 0.555455,-1.03752 4.09857,1.05086 q 0.983227,0.25832 1.698613,0.52643 -0.336388,-0.24028 -0.732776,-0.57285 -0.396389,-0.33257 -0.631799,-0.55708 l -3.089499,-2.9561 0.53952,-1.00774 4.203759,0.91568 q 0.585676,0.12208 1.682206,0.49577 -0.573904,-0.38932 -1.38386,-1.13479 l -3.140784,-2.81942 0.550902,-1.02901 z"
             style="font-size:9.87777901px;letter-spacing:-1.09537506px"
             id="path1471"
             inkscape:connector-curvature="0" />
          <path
             d="m 81.879187,112.32779 -1.876516,-0.89948 -1.919352,1.89347 0.884222,1.87839 -0.865254,0.85359 -3.094318,-6.89327 0.892722,-0.88068 6.850617,3.18762 z m -2.790601,-1.39339 -1.818517,-0.9025 q -0.186993,-0.0865 -0.571001,-0.29037 -0.380575,-0.20721 -0.5504,-0.31068 0.323925,0.51378 0.639917,1.19121 l 0.837311,1.7553 z"
             style="font-size:9.87777901px;letter-spacing:-0.19314583px"
             id="path1473"
             inkscape:connector-curvature="0" />
          <path
             d="m 86.034848,107.4509 q 0.471935,0.81353 0.152326,1.61786 -0.319609,0.80434 -1.354259,1.40454 -1.03465,0.60021 -1.880175,0.66135 l -0.54696,-0.94286 q 0.530946,-0.0459 1.063552,-0.20436 0.536778,-0.16083 0.941459,-0.39559 0.592421,-0.34366 0.741253,-0.7311 0.153005,-0.38986 -0.06723,-0.76951 -0.198454,-0.3421 -0.595067,-0.42986 -0.396612,-0.0877 -1.394749,0.0563 -1.030429,0.14611 -1.624229,-0.0893 -0.593801,-0.23543 -0.947146,-0.84454 -0.442893,-0.76347 -0.154654,-1.51615 0.288238,-0.75268 1.2019,-1.2827 0.876115,-0.50824 1.966542,-0.62781 l 0.154864,0.99746 q -1.011989,0.12984 -1.650302,0.50012 -0.483949,0.28074 -0.610838,0.63873 -0.12931,0.3538 0.07157,0.70008 0.13795,0.2378 0.337304,0.35077 0.196935,0.10879 0.51352,0.12587 0.316585,0.0171 1.055968,-0.0829 0.833839,-0.11013 1.287108,-0.0497 0.453268,0.0605 0.77596,0.28031 0.322692,0.21985 0.562289,0.63288 z"
             style="font-size:9.87777901px;letter-spacing:-0.66145831px"
             id="path1475"
             inkscape:connector-curvature="0" />
          <path
             d="m 93.003695,107.25494 -1.114338,0.31334 -0.860369,-3.05979 -3.12943,0.87996 0.860369,3.05978 -1.109694,0.31203 -1.908741,-6.78817 1.109695,-0.31203 0.780729,2.77656 3.129431,-0.87995 -0.78073,-2.77656 1.114337,-0.31334 z"
             style="font-size:9.87777901px;letter-spacing:-0.66145831px"
             id="path1477"
             inkscape:connector-curvature="0" />
          <path
             d="m 94.237491,107.26007 -0.522892,-7.03201 1.149555,-0.0855 0.522892,7.03201 z"
             style="font-size:9.87777901px;letter-spacing:-0.98160416px"
             id="path1479"
             inkscape:connector-curvature="0" />
          <path
             d="m 102.10989,107.6643 -1.40322,-0.16746 -2.777545,-5.9903 -0.03831,-0.005 -0.0132,0.31416 q -0.03926,0.89878 -0.127278,1.63631 l -0.434376,3.63975 -1.039245,-0.12402 0.835602,-7.00174 1.388853,0.16575 2.771399,5.96042 0.0287,0.003 q 0.004,-0.11129 0.0571,-0.80436 0.0541,-0.69785 0.10044,-1.08577 l 0.4378,-3.66849 1.04882,0.12517 z"
             style="font-size:9.87777901px;letter-spacing:-1.38906252px"
             id="path1481"
             inkscape:connector-curvature="0" />
          <path
             d="m 106.69293,105.35566 2.40716,0.96891 -1.3219,3.28412 q -0.66804,-0.0453 -1.24632,-0.18451 -0.57381,-0.13738 -1.20468,-0.39131 -1.48546,-0.59792 -1.93785,-1.79905 -0.45058,-1.2056 0.19416,-2.80739 0.63574,-1.57943 1.90241,-2.10421 1.26847,-0.52927 2.86131,0.11187 1.02461,0.41242 1.78335,1.17535 l -0.73423,0.7391 q -0.64874,-0.68746 -1.44516,-1.00803 -1.04698,-0.42142 -1.92023,-0.009 -0.87324,0.41279 -1.33248,1.55373 -0.48266,1.19911 -0.18893,2.04523 0.30001,0.84344 1.32909,1.25766 0.51902,0.20891 1.16185,0.31688 l 0.67896,-1.68681 -1.35571,-0.54568 z"
             style="font-size:9.87777901px;letter-spacing:-1.38906252px"
             id="path1483"
             inkscape:connector-curvature="0" />
          <path
             d="m 109.91967,111.49564 -0.95031,-0.65246 3.43153,-4.99806 -1.70976,-1.17388 0.55964,-0.81512 4.36983,3.00021 -0.55964,0.81511 -1.70976,-1.17387 z"
             style="font-size:9.87777901px;letter-spacing:-1.51341665px"
             id="path1485"
             inkscape:connector-curvature="0" />
          <path
             d="m 118.18402,114.60456 q -1.26916,1.16362 -2.55651,1.17263 -1.28409,0.0126 -2.34993,-1.14994 -1.07888,-1.17673 -0.96226,-2.44839 0.12343,-1.27136 1.41037,-2.45128 1.28694,-1.17992 2.5568,-1.17945 1.27313,0.004 2.35201,1.18076 1.06258,1.15895 0.94241,2.43387 -0.12017,1.27492 -1.39289,2.4418 z m -3.63754,-3.96747 q -0.95988,0.88005 -1.10231,1.72388 -0.13887,0.84056 0.55865,1.60135 0.69426,0.75723 1.53688,0.69138 0.84589,-0.0623 1.81642,-0.95213 0.95632,-0.87679 1.09846,-1.71381 0.14539,-0.83345 -0.54887,-1.59069 -0.70078,-0.76434 -1.55348,-0.70234 -0.84944,0.0656 -1.80575,0.94236 z"
             style="font-size:9.87777901px;letter-spacing:-1.51341665px"
             id="path1487"
             inkscape:connector-curvature="0" />
          <path
             d="m 118.21869,122.29328 -0.6399,-1.26 3.43962,-5.63626 -0.0175,-0.0344 -0.2686,0.16346 q -0.76929,0.46643 -1.43154,0.80276 l -3.26826,1.65981 -0.47392,-0.93317 6.2871,-3.19296 0.63335,1.2471 -3.41819,5.61456 0.0131,0.0258 q 0.0945,-0.0588 0.70069,-0.39913 0.61044,-0.34247 0.95877,-0.51937 l 3.29406,-1.67292 0.47829,0.94177 z"
             style="font-size:9.87777901px;letter-spacing:-1.51341665px"
             id="path1489"
             inkscape:connector-curvature="0" />
        </g>
      </g>
      <g
         style="fill:#e1242a;fill-opacity:1;stroke:#000000;stroke-width:0.3116712;stroke-miterlimit:4;stroke-dasharray:none;stroke-opacity:1"
         id="g867"
         transform="matrix(0.84891811,0,0,0.84891811,14.689603,19.450099)">
        <path
           inkscape:connector-curvature="0"
           d="m 81.67893,126.52111 c 0.03755,-2.05979 -1.460619,-1.06103 -1.460619,-2.36074 0,-0.92093 1.160932,-1.05844 1.860069,-1.05844 h 6.518018 c 5.563259,0 7.38571,3.43992 7.38571,7.04076 0,3.71754 -2.18169,7.21968 -7.241748,7.21968 -1.745883,0 -2.821209,-0.0986 -3.921192,-0.0986 -1.141458,0 -2.260916,0.0986 -3.399714,0.0986 -0.680993,0 -1.538382,-0.33718 -1.538382,-1.13887 0,-1.43968 1.57733,0.15825 1.637015,-2.75753 m 4.961491,0.37612 c 0,1.01956 0.156922,1.43975 1.238695,1.43975 2.522917,0 2.961382,-2.57862 2.961382,-4.57879 0,-4.68268 -1.761503,-5.42203 -3.299885,-5.42203 -0.841836,0 -0.900126,0.34243 -0.900126,1.09992 v 7.46115 z"
           id="path863"
           style="display:inline;opacity:1;fill:#e1242a;fill-opacity:1;fill-rule:nonzero;stroke:#000000;stroke-width:0.3116712;stroke-miterlimit:4;stroke-dasharray:none;stroke-opacity:1" />
        <path
           inkscape:connector-curvature="0"
           d="m 105.9687,122.59607 c 2.05979,0 3.38289,1.03252 3.93029,1.03252 0.46439,0 0.58369,-0.15041 0.94174,-0.15041 0.88729,0 2.0235,1.32563 2.0235,3.65527 0,1.19855 -0.72114,2.20509 -1.95611,2.20509 -2.16879,0 -1.6188,-3.71237 -5.35449,-3.71237 -1.61874,0 -2.29329,1.50728 -2.29329,2.66688 0,3.10535 1.66294,5.75135 4.60212,5.75135 2.66695,0 3.06633,-1.44752 3.72014,-1.44752 0.60709,0 0.89773,0.7109 0.89773,1.23497 0,0.92605 -0.96253,2.8587 -2.01327,2.8587 -0.71329,0 -2.18428,1.21942 -4.66446,1.21942 -4.41023,0 -8.022634,-3.48931 -8.022634,-7.71012 6.6e-5,-4.3039 4.053594,-7.60378 8.188734,-7.60378"
           id="path865"
           style="display:inline;opacity:1;fill:#e1242a;fill-opacity:1;stroke:#000000;stroke-width:0.3116712;stroke-miterlimit:4;stroke-dasharray:none;stroke-opacity:1" />
      </g>
      <path
         sodipodi:nodetypes="cc"
         inkscape:connector-curvature="0"
         id="path871"
         d="m 84.083288,126.78561 -0.136543,5.89562"
         style="fill:none;stroke:#000000;stroke-width:0.26458332px;stroke-linecap:round;stroke-linejoin:miter;stroke-opacity:1" />
    </g>
  </g>
</svg>
